<svg id="Layer_1" data-name="Layer 1" xmlns="http://www.w3.org/2000/svg" viewBox="0 0 102 51"><defs><style>.cls-1{fill:#ca995b;}</style></defs><path class="cls-1" d="M28.14,36.51l-.7.13a2.48,2.48,0,0,1-.94,0l-1.23-.18a6.65,6.65,0,0,0-1.09.15,5.49,5.49,0,0,1-1.46.07c.85-.23,1.28-.7,1.28-1.42a9,9,0,0,0-.41-2.3,7.3,7.3,0,0,0-1.47-3,4.37,4.37,0,0,0-3.41-1.36h-.78v2.7a12.83,12.83,0,0,0,.59,4.48,1.65,1.65,0,0,0,.64.56,1.34,1.34,0,0,1,.24.12l.22.1a5.57,5.57,0,0,1-1,0,17.83,17.83,0,0,0-1.92-.19H15.23a10.71,10.71,0,0,0-1.57.2,3.16,3.16,0,0,0,1.64-2,23.42,23.42,0,0,0,.13-3.45v-9a4.79,4.79,0,0,0-.28-1.84,2.64,2.64,0,0,0-.51-.81,7,7,0,0,0-.81-.63l-.69-.48a14,14,0,0,0,2,.61,17.12,17.12,0,0,0,2.47.37,4.38,4.38,0,0,0,1.44-.22A2.69,2.69,0,0,0,18,20.81c0,.32-.07,1.76-.07,4.31v2.56h.7a3.48,3.48,0,0,0,2-1A9.12,9.12,0,0,0,23.32,23c.08-.58.11-.86.11-.83a3.82,3.82,0,0,0-.74-2l1,1.08a4.23,4.23,0,0,0,1.68,1s.46.24,1.23.67a2.81,2.81,0,0,0-.91.16,3.13,3.13,0,0,0-1.54,1.14q-.9,1.08-1.77,2.16a6.88,6.88,0,0,1-1.23,1.18,3.21,3.21,0,0,1-1,.57,5,5,0,0,1,3,1.36A11.11,11.11,0,0,1,26.56,35,2.06,2.06,0,0,0,28.14,36.51Z"/><path class="cls-1" d="M41.61,36.54A3.1,3.1,0,0,0,40,36.23a18.5,18.5,0,0,0-2.23.22,30.28,30.28,0,0,1-3.15.32c-2.13,0-3.61-.57-4.46-1.72a3.69,3.69,0,0,1-.64-2.21,4.83,4.83,0,0,1,.64-2.46,4.14,4.14,0,0,1,1.46-1.59,8.35,8.35,0,0,1,2.21-.9c.61-.13,1.72-.37,3.33-.74a13,13,0,0,1-1.14.66q-3.44,1.86-3.81,3.69a4,4,0,0,1-.08.86,2.5,2.5,0,0,0,.57,1.7,3.66,3.66,0,0,0,1.18,1,2.55,2.55,0,0,0,1.68.39c1.34-.16,2.11-.66,2.3-1.5A13.5,13.5,0,0,0,37.94,32v-4.9C37.93,25,37,24,35,24a6.07,6.07,0,0,0-2.06.39,2,2,0,0,0-1.1.92l-.78,2.23a6.62,6.62,0,0,0-.46-2.92,9.74,9.74,0,0,0-1.47-2.13,5.93,5.93,0,0,0,2.93,1.2,9.92,9.92,0,0,0,1.54-.15,18.38,18.38,0,0,1,2.45-.28c1.89,0,3.14.62,3.76,1.85a6.64,6.64,0,0,1,.52,2.48v5.77A4.49,4.49,0,0,0,41.61,36.54Z"/><path class="cls-1" d="M42,18.71c1.32.85,2.19,1.38,2.63,1.62a3.25,3.25,0,0,0,1.64.44,3.9,3.9,0,0,0-.5,2.16v2a6.53,6.53,0,0,1,3.44-.78,5.2,5.2,0,0,1,4,1.53A6.52,6.52,0,0,1,55,30.36,6.69,6.69,0,0,1,53.46,35,5.77,5.77,0,0,1,49,36.73a39.81,39.81,0,0,1-4.36-.48c-.8.06-1.61.15-2.4.29a2.55,2.55,0,0,1,.61-.42,8.56,8.56,0,0,0,.63-4V23.06a14.51,14.51,0,0,0-.3-2.45A4.11,4.11,0,0,0,42,18.71ZM52.19,33a13.65,13.65,0,0,0,.2-2.78,7.1,7.1,0,0,0-.53-3c-.19-.38-.31-.62-.37-.72A2.1,2.1,0,0,0,51,26a3.72,3.72,0,0,0-2.47-.9,4.17,4.17,0,0,0-1.76.45c-.62.3-.93.6-.93.91v7.15A2.29,2.29,0,0,0,47,35.42a3.89,3.89,0,0,0,1.83.41,3.21,3.21,0,0,0,2.5-1.07A3.88,3.88,0,0,0,52.19,33Z"/><path class="cls-1" d="M67.7,36.54a3.12,3.12,0,0,0-1.62-.31,18.5,18.5,0,0,0-2.23.22,30.28,30.28,0,0,1-3.15.32q-3.2,0-4.46-1.72a3.62,3.62,0,0,1-.64-2.21,4.83,4.83,0,0,1,.64-2.46,4.14,4.14,0,0,1,1.46-1.59,8.35,8.35,0,0,1,2.21-.9c.62-.13,1.72-.37,3.33-.74a13,13,0,0,1-1.14.66q-3.43,1.86-3.81,3.69c0,.18,0,.46-.09.86a2.55,2.55,0,0,0,.57,1.7,3.83,3.83,0,0,0,1.19,1,2.55,2.55,0,0,0,1.68.39c1.34-.16,2.11-.66,2.29-1.5A11.07,11.07,0,0,0,64,32v-4.9C64,25,63,24,61.12,24a6.07,6.07,0,0,0-2.06.39,2,2,0,0,0-1.1.92l-.78,2.23a6.92,6.92,0,0,0-.46-2.92,9.74,9.74,0,0,0-1.47-2.13,5.84,5.84,0,0,0,2.93,1.2,9.92,9.92,0,0,0,1.54-.15,18.23,18.23,0,0,1,2.44-.28c1.9,0,3.15.62,3.76,1.85a6.42,6.42,0,0,1,.53,2.48v5.77A4.51,4.51,0,0,0,67.7,36.54Z"/><path class="cls-1" d="M68.13,18.71c1.32.85,2.19,1.38,2.63,1.62a3.25,3.25,0,0,0,1.64.44,3.9,3.9,0,0,0-.5,2.16v2a6.53,6.53,0,0,1,3.44-.78,5.2,5.2,0,0,1,4,1.53,6.56,6.56,0,0,1,1.75,4.65A6.69,6.69,0,0,1,79.55,35,5.78,5.78,0,0,1,75,36.73a39.63,39.63,0,0,1-4.35-.48c-.8.06-1.61.15-2.4.29a3.67,3.67,0,0,1,.61-.42,8.56,8.56,0,0,0,.63-4V23.06a12.72,12.72,0,0,0-.3-2.45A4.22,4.22,0,0,0,68.13,18.71ZM78.28,33a13.65,13.65,0,0,0,.2-2.78,7.08,7.08,0,0,0-.48-3c-.19-.38-.31-.62-.37-.72a2.12,2.12,0,0,0-.46-.53,3.72,3.72,0,0,0-2.47-.9,4.17,4.17,0,0,0-1.76.45c-.62.3-.93.6-.93.91v7.15a2.27,2.27,0,0,0,1.12,1.86,3.89,3.89,0,0,0,1.83.41,3.19,3.19,0,0,0,2.49-1.07A3.87,3.87,0,0,0,78.28,33Z"/><path class="cls-1" d="M83,35.59c.11-.67.11-3.46,0-8.39a2.71,2.71,0,0,0-1.33-2,10.09,10.09,0,0,0,3.06.75,4.56,4.56,0,0,0,1.67-.37A4.4,4.4,0,0,0,85.24,29v7.55a3.26,3.26,0,0,1-.84,2.38,8.33,8.33,0,0,1-3.19,1.88A7.37,7.37,0,0,0,83,35.59Zm2.5-12.07a5.07,5.07,0,0,0-1.42,1.27,18.37,18.37,0,0,0-1.38-1.27v-.09a5.38,5.38,0,0,0,1.36-1.2,2.79,2.79,0,0,0,.67.7Z"/><path class="cls-1" d="M92.45,24.79a2.4,2.4,0,0,0-.59,1.49v2.64q0,6.54.7,7.09l.68.53c-.88-.08-1.67-.12-2.39-.12a15.32,15.32,0,0,0-2.23.4,2.55,2.55,0,0,1,.37-.35l.44-.39a4.93,4.93,0,0,0,.33-1.78V32.51q0-3.78-.18-6.85a4.62,4.62,0,0,0-1.77-1.92,14.11,14.11,0,0,0,3.87.63,10.66,10.66,0,0,0,1.38-.09Zm-.15-3.13a6.59,6.59,0,0,0-1.71,1.62c-.41-.45-.69-.76-.85-.92a4.06,4.06,0,0,0-.85-.7v-.13A6.71,6.71,0,0,0,90.59,20,12.77,12.77,0,0,0,92.3,21.66Z"/><path class="cls-1" d="M34,41.67a2.42,2.42,0,0,0-.2,1.27V44.7a1.38,1.38,0,0,1-.17.52l-.26.3a1.85,1.85,0,0,1-.76.46l.09-.07a1.13,1.13,0,0,0,.5-.65,4.61,4.61,0,0,0,0-.91V42.17a.71.71,0,0,0-.5-.61,3,3,0,0,1,.43.11,1.34,1.34,0,0,0,.44.1A.91.91,0,0,0,34,41.67Z"/><path class="cls-1" d="M42.13,43.23a1.43,1.43,0,0,1,.17.73,1.61,1.61,0,0,1-.3,1,1.45,1.45,0,0,1-1.14.68,1.26,1.26,0,0,1-.43-.08,2,2,0,0,1-.65-.36,1.5,1.5,0,0,1-.38-.64,2,2,0,0,1-.08-.54,1.88,1.88,0,0,1,.41-1.18,1.38,1.38,0,0,1,1-.42,1.52,1.52,0,0,1,1.06.38A1.07,1.07,0,0,1,42.13,43.23Zm-.81-.34a.69.69,0,0,0-.54-.25c-.48,0-.76.41-.83,1.24a3.36,3.36,0,0,0,.06.63,1.5,1.5,0,0,0,.22.54.83.83,0,0,0,.71.4c.14,0,.27-.1.41-.3a1.24,1.24,0,0,0,.24-.52,2.81,2.81,0,0,0,0-.58A1.75,1.75,0,0,0,41.32,42.89Z"/><path class="cls-1" d="M48.3,45.05a.9.9,0,0,0,.31.54,1.11,1.11,0,0,0-.51-.1,2.3,2.3,0,0,0-.64.09.72.72,0,0,0,.3-.44V43.62a1.93,1.93,0,0,0,0-.34,1.06,1.06,0,0,0-.12-.43l-.08-.15a.38.38,0,0,0-.09-.13,1.39,1.39,0,0,0,.62.21h.2l.39-.18a.88.88,0,0,1,.32-.07,1.7,1.7,0,0,1,.53.16l.2.08H50a1.39,1.39,0,0,0-.86.8,1.34,1.34,0,0,0,.05-.35.64.64,0,0,0-.12-.38.31.31,0,0,0-.26-.15.55.55,0,0,0-.18.06l-.19.09c-.09.06-.13.21-.13.46Z"/><path class="cls-1" d="M58.15,41.35a1.31,1.31,0,0,0-.21.36,1.56,1.56,0,0,0-.1.37,1.71,1.71,0,0,0,0,.32V45a1.05,1.05,0,0,0,.25.52h-.48a1.21,1.21,0,0,0-.38,0,2.5,2.5,0,0,1-.66.09,1.3,1.3,0,0,1-1-.43,1.63,1.63,0,0,1-.32-1.11v-.22A1.24,1.24,0,0,1,56,42.8a1.25,1.25,0,0,1,.57-.13,1.39,1.39,0,0,1,.84.23v-.48a1.28,1.28,0,0,0-.11-.64,1.47,1.47,0,0,0,.54-.16A1.54,1.54,0,0,0,58.15,41.35Zm-1,1.86a.85.85,0,0,0-.6-.33c-.4,0-.66.28-.78.86v.36a1.93,1.93,0,0,0,.17.85.73.73,0,0,0,.68.45h.17a.93.93,0,0,0,.33-.12.47.47,0,0,0,.2-.34,7.37,7.37,0,0,0,0-.94,1.36,1.36,0,0,0-.18-.79Z"/><path class="cls-1" d="M65.91,45.56a.65.65,0,0,0-.36-.07,4.17,4.17,0,0,0-.5,0,5.69,5.69,0,0,1-.71.07,1.18,1.18,0,0,1-1-.39.78.78,0,0,1-.14-.49,1.19,1.19,0,0,1,.14-.56,1,1,0,0,1,.33-.35,1.81,1.81,0,0,1,.5-.2l.74-.17-.25.15c-.52.28-.8.55-.86.83v.19a.58.58,0,0,0,.13.38.75.75,0,0,0,.27.23.52.52,0,0,0,.38.09.47.47,0,0,0,.51-.34,3.09,3.09,0,0,0,0-.43V43.4c0-.47-.22-.71-.65-.71a1.22,1.22,0,0,0-.46.09.55.55,0,0,0-.25.2,2.4,2.4,0,0,1-.18.5,1.46,1.46,0,0,0-.1-.65,2.27,2.27,0,0,0-.33-.48,1.33,1.33,0,0,0,.66.27h.34a4.25,4.25,0,0,0,.55-.07.84.84,0,0,1,.85.42,1.46,1.46,0,0,1,.11.55v1.3A1.12,1.12,0,0,0,65.91,45.56Z"/><path class="cls-1" d="M73,45.14a3.61,3.61,0,0,0,.23-1.21,2.07,2.07,0,0,0-.26-1,.72.72,0,0,0-.6-.32.38.38,0,0,0-.39.33,5.55,5.55,0,0,0-.09,1v.82a2.48,2.48,0,0,0,.07.61.67.67,0,0,0,.22.28,2,2,0,0,0-.55-.07,2.52,2.52,0,0,0-.67.09.73.73,0,0,0,.36-.58,6.49,6.49,0,0,0,0-1.08v-.7a1.31,1.31,0,0,0-.15-.7l-.12-.18a1.16,1.16,0,0,0,.6.2,1.59,1.59,0,0,0,.38-.07,1.53,1.53,0,0,1,.37-.08,1.34,1.34,0,0,1,1.08.54,1.26,1.26,0,0,1,.25.79,1.65,1.65,0,0,1-.13.66,3.06,3.06,0,0,1-.35.64,1.9,1.9,0,0,1-.63.63l.15-.19A1.27,1.27,0,0,0,73,45.14Z"/><path class="cls-1" d="M94.5,18a1.36,1.36,0,1,1-1.39,1.35A1.34,1.34,0,0,1,94.46,18Zm0,.24a1.12,1.12,0,0,0,0,2.23,1.05,1.05,0,0,0,1.06-1.06v-.05a1.08,1.08,0,0,0-1-1.12h0Zm-.23,1.86H94V18.72a2,2,0,0,1,.49,0,.69.69,0,0,1,.46.11.37.37,0,0,1,.14.3.36.36,0,0,1-.28.33h0c.13,0,.19.16.24.34a.88.88,0,0,0,.1.36h-.27a.87.87,0,0,1-.11-.38c0-.15-.13-.22-.33-.22h-.17Zm0-.8h.18c.19,0,.36-.06.36-.23s-.09-.23-.34-.23a.67.67,0,0,0-.2,0Z"/><path class="cls-1" d="M34.32,12.75l-.3-1.3,1.7-.15A2.72,2.72,0,0,1,34.32,12.75Z"/><path class="cls-1" d="M34.79,9a3.93,3.93,0,0,1,.77,1l-1.77.56C34.18,9.93,34.39,9.63,34.79,9Z"/><path class="cls-1" d="M41.8,8.36c-.33.77-.49,1.15-.8,1.92-.2-.7-.31-1-.51-1.74Z"/><path class="cls-1" d="M48.66,9.84c.34.59.51.89.83,1.48l-.86.46S47.88,11.08,48.66,9.84Z"/><path class="cls-1" d="M62.61,11.72c.48.34.72.52,1.19.87-.37.26-.55.4-.91.67l-.81-1Z"/><path class="cls-1" d="M64.92,9.93l1.1.16s.63,2-1.31,1.89C64.8,11.16,64.84,10.75,64.92,9.93Z"/><path class="cls-1" d="M81.77,18.23a4.13,4.13,0,0,1-3.19-3.83c-3.64-1-7.28-1.77-11-2.42a9.5,9.5,0,0,1-.13,2.32,8.88,8.88,0,0,0-3,1.68,11.82,11.82,0,0,1-4.89-3.45,5.17,5.17,0,0,0,.92-1.48c-.77-.08-1.15-.11-1.92-.17a6.8,6.8,0,0,0,.16,1.74,6,6,0,0,1-.46-4.54,3.89,3.89,0,0,1-.94-.15,4.29,4.29,0,0,0-1.14,2.47,3.38,3.38,0,0,1,.54-2.62A4.68,4.68,0,0,1,56,7.54a5.13,5.13,0,0,0-.7,4.32,4.67,4.67,0,0,1,.13-4.58,3.27,3.27,0,0,1-.5-.32,4.66,4.66,0,0,0,.56,6.57l.17.13c1.34-.14,2-.2,3.36-.29-1.57.57-2.34.86-3.86,1.48a6.8,6.8,0,0,1-2.79-4.27H50.8A12.89,12.89,0,0,0,52.05,13c-1.66-1.19-2.65-3.36-3.36-5.2a2.81,2.81,0,0,0-1.2,2.47c-.07,2.08,1.81,3.41,3.7,3.67a5,5,0,0,1-4.82-2.63,3.65,3.65,0,0,1-.29-.71H45a11.45,11.45,0,0,1-.41,3.64,16.05,16.05,0,0,1-5.39-.46c-.1-1.08-.16-1.61-.27-2.69l-1,.12A3.24,3.24,0,0,1,37.4,13a7,7,0,0,1-4.68,2.76c-.15-1.44-.22-2.16-.38-3.6A120.73,120.73,0,0,0,20.19,15.1c.6-.56.9-.84,1.51-1.38q5.22-1.5,10.54-2.56c-.16-1.48-.24-2.22-.41-3.69.62,2.12,1.23,4.25,1.8,6.38,1.65-.36,3.15-1.49,3.1-3.33A3.88,3.88,0,0,0,33.82,7.1a4.68,4.68,0,0,1,4,3.15l1-.13c-.11-1-.17-1.56-.29-2.6,1.66-.27,3.34-.49,5-.68A25.43,25.43,0,0,0,39.62,8c.3,1.68.6,3.36.87,5a7.08,7.08,0,0,0,1.66.16,12.92,12.92,0,0,0,1.42-4,11.91,11.91,0,0,1-.79,4,4.08,4.08,0,0,0,.79-.07c1.07-1.77,1.06-4.23,1.13-6.25.15,1,.23,1.94.28,2.74l1-.05a4.41,4.41,0,0,1,4-3.74,12.49,12.49,0,0,0,.47,3.6h2a6.31,6.31,0,0,1,2.29-3.66A13.63,13.63,0,0,0,59.5,7.57a8,8,0,0,0-.74,2.07c.91.06,1.36.1,2.27.18.49-1.38.81-2.71.81-2.71A22.6,22.6,0,0,1,66.41,8.8a7.74,7.74,0,0,0-3.1-.3A8.38,8.38,0,0,1,61,12.21a7,7,0,0,0,2.79,2.67,7.27,7.27,0,0,1,2.71-1.13A8.52,8.52,0,0,0,67,9.4a8.2,8.2,0,0,1,.37,1.19,124.29,124.29,0,0,1,12.81,2.77,2.75,2.75,0,0,0,1.68,3.51l.12,0a2.14,2.14,0,0,0,2.47-3.29,3.78,3.78,0,0,0-3.62-1.35c2.2-1.21,5.37.31,5.44,2.89S84,18.77,81.77,18.23Z"/></svg>