<svg id="Layer_1" data-name="Layer 1" xmlns="http://www.w3.org/2000/svg" viewBox="0 0 193 51"><defs><style>.cls-1{fill:#ca995b;}</style></defs><path class="cls-1" d="M70.14,36.51s-.28.06-.7.13a2.6,2.6,0,0,1-.94,0l-1.23-.18a7.4,7.4,0,0,0-1.09.15,5.3,5.3,0,0,1-1.46.07Q66,36.34,66,35.26a9.08,9.08,0,0,0-.41-2.3A7.3,7.3,0,0,0,64.12,30a4.36,4.36,0,0,0-3.41-1.36h-.78v1.09q0,.26,0,.33v1.28a12.9,12.9,0,0,0,.59,4.48,1.6,1.6,0,0,0,.64.56,1.74,1.74,0,0,1,.24.12,1.2,1.2,0,0,0,.22.1,5.86,5.86,0,0,1-1,0,16.29,16.29,0,0,0-1.92-.19c-.8,0-1.29,0-1.47,0-.48,0-1,.11-1.57.2a3.18,3.18,0,0,0,1.64-2,23.71,23.71,0,0,0,.13-3.45V22.12a4.77,4.77,0,0,0-.28-1.84,2.7,2.7,0,0,0-.51-.81,7.29,7.29,0,0,0-.81-.63l-.69-.48a14.37,14.37,0,0,0,2,.61,16.68,16.68,0,0,0,2.47.37,4.35,4.35,0,0,0,1.44-.22A2.69,2.69,0,0,0,60,20.81c0,.32-.07,1.76-.07,4.31v2.56h.7a3.49,3.49,0,0,0,2-1A9.08,9.08,0,0,0,65.32,23c.08-.58.11-.86.11-.83a3.76,3.76,0,0,0-.74-2l1,1.08a4.18,4.18,0,0,0,1.68,1s.46.24,1.23.67a2.87,2.87,0,0,0-.91.16,3.17,3.17,0,0,0-1.54,1.14q-.9,1.08-1.77,2.16a7,7,0,0,1-1.23,1.18,3.13,3.13,0,0,1-1,.57,5,5,0,0,1,3,1.36A11.1,11.1,0,0,1,68.56,35,2.06,2.06,0,0,0,70.14,36.51Z"/><path class="cls-1" d="M83.61,36.54A3.1,3.1,0,0,0,82,36.23a19.62,19.62,0,0,0-2.23.22,30.35,30.35,0,0,1-3.15.32q-3.19,0-4.46-1.72a3.7,3.7,0,0,1-.64-2.21,4.88,4.88,0,0,1,.64-2.46,4.14,4.14,0,0,1,1.46-1.59,8.43,8.43,0,0,1,2.21-.9c.61-.13,1.72-.37,3.33-.74a12,12,0,0,1-1.14.66q-3.44,1.86-3.81,3.69c0,.18,0,.46-.08.86a2.49,2.49,0,0,0,.57,1.7,3.62,3.62,0,0,0,1.18,1,2.55,2.55,0,0,0,1.68.39c1.34-.16,2.11-.66,2.3-1.5a13.5,13.5,0,0,0,.08-1.91v-4.9C79.93,25,79,24,77,24a6.17,6.17,0,0,0-2.06.39,2,2,0,0,0-1.1.92l-.78,2.23a6.71,6.71,0,0,0-.46-2.92,9.74,9.74,0,0,0-1.47-2.13,5.91,5.91,0,0,0,2.93,1.2,10.7,10.7,0,0,0,1.54-.15,19.06,19.06,0,0,1,2.45-.28c1.89,0,3.14.62,3.76,1.85a6.57,6.57,0,0,1,.52,2.48c0,.25,0,1.17,0,2.77s0,2.6,0,3A4.5,4.5,0,0,0,83.61,36.54Z"/><path class="cls-1" d="M84,18.71c1.32.85,2.19,1.38,2.63,1.62a3.18,3.18,0,0,0,1.64.44,3.88,3.88,0,0,0-.5,2.16c0-.09,0,.2,0,.88s0,1,0,1.15a6.47,6.47,0,0,1,3.44-.78,5.19,5.19,0,0,1,4,1.53A6.56,6.56,0,0,1,97,30.36,6.68,6.68,0,0,1,95.46,35,5.77,5.77,0,0,1,91,36.73a41.69,41.69,0,0,1-4.36-.48,24.09,24.09,0,0,0-2.4.29,2.87,2.87,0,0,1,.61-.42,8.57,8.57,0,0,0,.63-4V23.06a13.93,13.93,0,0,0-.3-2.45A4.09,4.09,0,0,0,84,18.71ZM94.19,33a13.26,13.26,0,0,0,.2-2.78,7.08,7.08,0,0,0-.53-3.05c-.19-.38-.31-.62-.37-.72A2.14,2.14,0,0,0,93,26a3.72,3.72,0,0,0-2.47-.9,4.06,4.06,0,0,0-1.76.45c-.62.3-.93.6-.93.91q0,3,0,7.15A2.29,2.29,0,0,0,89,35.42a3.88,3.88,0,0,0,1.83.41,3.2,3.2,0,0,0,2.5-1.07A3.92,3.92,0,0,0,94.19,33Z"/><path class="cls-1" d="M109.7,36.54a3.1,3.1,0,0,0-1.62-.31,19.62,19.62,0,0,0-2.23.22,30.61,30.61,0,0,1-3.15.32q-3.2,0-4.46-1.72a3.64,3.64,0,0,1-.64-2.21,4.78,4.78,0,0,1,.64-2.46,4.14,4.14,0,0,1,1.46-1.59,8.43,8.43,0,0,1,2.21-.9c.62-.13,1.72-.37,3.33-.74a12,12,0,0,1-1.14.66q-3.43,1.86-3.81,3.69c0,.18-.05.46-.09.86a2.54,2.54,0,0,0,.57,1.7,3.87,3.87,0,0,0,1.19,1,2.55,2.55,0,0,0,1.68.39c1.34-.16,2.11-.66,2.29-1.5a11.1,11.1,0,0,0,.1-1.91v-4.9c0-2.13-1-3.19-2.91-3.19a6.12,6.12,0,0,0-2.06.39,2,2,0,0,0-1.1.92l-.78,2.23a6.86,6.86,0,0,0-.46-2.92,9.74,9.74,0,0,0-1.47-2.13,5.87,5.87,0,0,0,2.93,1.2,10.7,10.7,0,0,0,1.54-.15,19.16,19.16,0,0,1,2.44-.28c1.9,0,3.15.62,3.76,1.85a6.37,6.37,0,0,1,.53,2.48c0,.25,0,1.17,0,2.77s0,2.6,0,3A4.5,4.5,0,0,0,109.7,36.54Z"/><path class="cls-1" d="M110.13,18.71c1.32.85,2.19,1.38,2.63,1.62a3.18,3.18,0,0,0,1.64.44,3.88,3.88,0,0,0-.5,2.16c0-.09,0,.2,0,.88s0,1,0,1.15a6.47,6.47,0,0,1,3.44-.78,5.19,5.19,0,0,1,4,1.53,6.56,6.56,0,0,1,1.75,4.65A6.68,6.68,0,0,1,121.55,35,5.78,5.78,0,0,1,117,36.73a41.89,41.89,0,0,1-4.35-.48,24.09,24.09,0,0,0-2.4.29,3.22,3.22,0,0,1,.61-.42,8.57,8.57,0,0,0,.63-4V23.06a13,13,0,0,0-.3-2.45A4.18,4.18,0,0,0,110.13,18.71ZM120.28,33a13.26,13.26,0,0,0,.2-2.78A7.08,7.08,0,0,0,120,27.2c-.19-.38-.31-.62-.37-.72a2.14,2.14,0,0,0-.46-.53,3.72,3.72,0,0,0-2.47-.9,4.06,4.06,0,0,0-1.76.45c-.62.3-.93.6-.93.91q0,3,0,7.15a2.27,2.27,0,0,0,1.12,1.86,3.88,3.88,0,0,0,1.83.41,3.17,3.17,0,0,0,2.49-1.07A3.83,3.83,0,0,0,120.28,33Z"/><path class="cls-1" d="M125,35.59q.16-1,0-8.39a2.7,2.7,0,0,0-1.33-2,9.93,9.93,0,0,0,3.06.75,4.49,4.49,0,0,0,1.67-.37A4.41,4.41,0,0,0,127.24,29v7.55a3.27,3.27,0,0,1-.84,2.38,8.44,8.44,0,0,1-3.19,1.88A7.41,7.41,0,0,0,125,35.59Zm2.5-12.07a5.22,5.22,0,0,0-1.42,1.27,16.62,16.62,0,0,0-1.38-1.27l0-.09a5.4,5.4,0,0,0,1.36-1.2,2.71,2.71,0,0,0,.67.7Z"/><path class="cls-1" d="M134.45,24.79a2.4,2.4,0,0,0-.59,1.49c0,2,0,2.86,0,2.64q0,6.54.7,7.09l.68.53c-.88-.08-1.67-.12-2.39-.12a14.81,14.81,0,0,0-2.23.4s.12-.15.37-.35l.44-.39a4.81,4.81,0,0,0,.33-1.78V32.51q0-3.78-.18-6.85a4.64,4.64,0,0,0-1.77-1.92,14.11,14.11,0,0,0,3.87.63,9.79,9.79,0,0,0,1.38-.09Zm-.15-3.13a6.65,6.65,0,0,0-1.71,1.62c-.41-.45-.69-.76-.85-.92a4.16,4.16,0,0,0-.85-.7l0-.13A6.68,6.68,0,0,0,132.59,20,12.49,12.49,0,0,0,134.3,21.66Z"/><path class="cls-1" d="M76,41.67a2.36,2.36,0,0,0-.2,1.27V44.7a1.28,1.28,0,0,1-.17.52l-.26.3a1.81,1.81,0,0,1-.76.46l.09-.07a1.11,1.11,0,0,0,.5-.65,5.28,5.28,0,0,0,0-.91V42.17a.71.71,0,0,0-.5-.61,3,3,0,0,1,.43.11,1.32,1.32,0,0,0,.44.1A.87.87,0,0,0,76,41.67Z"/><path class="cls-1" d="M84.13,43.23a1.43,1.43,0,0,1,.17.73A1.6,1.6,0,0,1,84,45a1.47,1.47,0,0,1-1.14.68,1.35,1.35,0,0,1-.43-.08,2,2,0,0,1-.65-.36,1.52,1.52,0,0,1-.38-.64,2,2,0,0,1-.08-.54,1.9,1.9,0,0,1,.41-1.18,1.4,1.4,0,0,1,1-.42,1.53,1.53,0,0,1,1.06.38A1.06,1.06,0,0,1,84.13,43.23Zm-.81-.34a.69.69,0,0,0-.54-.25c-.48,0-.76.41-.83,1.24a3.92,3.92,0,0,0,.06.63,1.46,1.46,0,0,0,.22.54.81.81,0,0,0,.71.4c.14,0,.27-.1.41-.3a1.36,1.36,0,0,0,.24-.52,2.26,2.26,0,0,0,0-.58A1.73,1.73,0,0,0,83.32,42.89Z"/><path class="cls-1" d="M90.3,45.05a.89.89,0,0,0,.31.54,1.13,1.13,0,0,0-.51-.1,2.65,2.65,0,0,0-.64.09.72.72,0,0,0,.3-.44s0-.17,0-.45V43.62a1.93,1.93,0,0,0,0-.34,1.22,1.22,0,0,0-.12-.43l-.08-.15a.38.38,0,0,0-.09-.13,1.49,1.49,0,0,0,.62.21.45.45,0,0,0,.2,0l.39-.18a.92.92,0,0,1,.32-.07,1.56,1.56,0,0,1,.53.16,1.28,1.28,0,0,0,.2.08l.25,0a1.39,1.39,0,0,0-.86.8,1.72,1.72,0,0,0,.05-.35.6.6,0,0,0-.12-.38.31.31,0,0,0-.26-.15.42.42,0,0,0-.18.06l-.19.09c-.09.06-.13.21-.13.46Z"/><path class="cls-1" d="M100.15,41.35a1.61,1.61,0,0,0-.21.36,1.73,1.73,0,0,0-.1.37,1.6,1.6,0,0,0,0,.32c0,1.42,0,2.29,0,2.61a1,1,0,0,0,.25.52,2.9,2.9,0,0,0-.48,0,1.58,1.58,0,0,0-.38,0,2.74,2.74,0,0,1-.66.09,1.29,1.29,0,0,1-1-.43,1.67,1.67,0,0,1-.32-1.11v-.22a1.23,1.23,0,0,1,.7-1.06,1.2,1.2,0,0,1,.57-.13,1.39,1.39,0,0,1,.84.23s0,0,0-.12v-.36a1.29,1.29,0,0,0-.11-.64,1.52,1.52,0,0,0,.54-.16A1.69,1.69,0,0,0,100.15,41.35Zm-1,1.86a.87.87,0,0,0-.6-.33c-.4,0-.66.28-.78.86,0,.19,0,.31,0,.36a2,2,0,0,0,.17.85.73.73,0,0,0,.68.45h.17a1.16,1.16,0,0,0,.33-.12.48.48,0,0,0,.2-.34,7.27,7.27,0,0,0,0-.94A1.39,1.39,0,0,0,99.14,43.21Z"/><path class="cls-1" d="M107.91,45.56a.65.65,0,0,0-.36-.07,3.21,3.21,0,0,0-.5,0,6.46,6.46,0,0,1-.71.07,1.17,1.17,0,0,1-1-.39.84.84,0,0,1-.14-.49,1.16,1.16,0,0,1,.14-.56.93.93,0,0,1,.33-.35,1.74,1.74,0,0,1,.5-.2l.74-.17-.25.15c-.52.28-.8.55-.86.83,0,0,0,.1,0,.19a.58.58,0,0,0,.13.38.83.83,0,0,0,.27.23.54.54,0,0,0,.38.09c.29,0,.47-.15.51-.34a3,3,0,0,0,0-.43v-1.1c0-.47-.22-.71-.65-.71a1.29,1.29,0,0,0-.46.09.5.5,0,0,0-.25.2c0,.1-.09.26-.18.5a1.39,1.39,0,0,0-.1-.65,2.06,2.06,0,0,0-.33-.48,1.3,1.3,0,0,0,.66.27l.34,0c.27,0,.46-.07.55-.07a.85.85,0,0,1,.85.42,1.47,1.47,0,0,1,.11.55c0,.06,0,.27,0,.62v.68A1.07,1.07,0,0,0,107.91,45.56Z"/><path class="cls-1" d="M115,45.14a3.63,3.63,0,0,0,.23-1.21,2.09,2.09,0,0,0-.26-1,.71.71,0,0,0-.6-.32.38.38,0,0,0-.39.33,4.86,4.86,0,0,0-.09,1v.82a2.85,2.85,0,0,0,.07.61.64.64,0,0,0,.22.28,2.18,2.18,0,0,0-.55-.07,3,3,0,0,0-.67.09.73.73,0,0,0,.36-.58,7.65,7.65,0,0,0,0-1.08s0-.12,0-.36v-.34a1.3,1.3,0,0,0-.15-.7l-.12-.18a1.1,1.1,0,0,0,.6.2,2.09,2.09,0,0,0,.38-.07,1.55,1.55,0,0,1,.37-.08,1.34,1.34,0,0,1,1.08.54,1.22,1.22,0,0,1,.25.79,1.76,1.76,0,0,1-.13.66,3.14,3.14,0,0,1-.35.64,1.87,1.87,0,0,1-.63.63l.15-.19A1.21,1.21,0,0,0,115,45.14Z"/><path class="cls-1" d="M136.5,18a1.36,1.36,0,1,1-1.39,1.35A1.35,1.35,0,0,1,136.5,18Zm0,.24a1.12,1.12,0,0,0,0,2.23,1.06,1.06,0,0,0,1.06-1.11,1.08,1.08,0,0,0-1.07-1.12Zm-.23,1.86H136V18.72a2.43,2.43,0,0,1,.49,0,.73.73,0,0,1,.46.11.38.38,0,0,1,.14.3.36.36,0,0,1-.28.33v0c.13,0,.19.16.24.34a1,1,0,0,0,.1.36h-.27a.86.86,0,0,1-.11-.38c0-.15-.13-.22-.33-.22h-.17Zm0-.8h.18c.19,0,.36-.06.36-.23s-.09-.23-.34-.23a.81.81,0,0,0-.2,0Z"/><path class="cls-1" d="M76.32,12.75l-.3-1.3,1.7-.15A2.72,2.72,0,0,1,76.32,12.75Z"/><path class="cls-1" d="M76.79,9a3.8,3.8,0,0,1,.77,1l-1.77.56C76.18,9.93,76.39,9.63,76.79,9Z"/><path class="cls-1" d="M83.8,8.36c-.33.77-.49,1.15-.8,1.92-.2-.7-.31-1-.51-1.74Z"/><path class="cls-1" d="M90.66,9.84c.34.59.51.89.83,1.48l-.86.46S89.88,11.08,90.66,9.84Z"/><path class="cls-1" d="M104.61,11.72c.48.34.72.52,1.19.87-.37.26-.55.4-.91.67l-.81-1Z"/><path class="cls-1" d="M106.92,9.93l1.1.16s.63,2-1.31,1.89C106.8,11.16,106.84,10.75,106.92,9.93Z"/><path class="cls-1" d="M123.77,18.23a4.14,4.14,0,0,1-3.19-3.83c-3.64-1-7.28-1.77-11-2.42a9.51,9.51,0,0,1-.13,2.32,9,9,0,0,0-3,1.68,11.82,11.82,0,0,1-4.89-3.45,5.25,5.25,0,0,0,.92-1.48c-.77-.08-1.15-.11-1.92-.17a6.56,6.56,0,0,0,.16,1.74,6,6,0,0,1-.46-4.54s-.4,0-.94-.15a4.31,4.31,0,0,0-1.14,2.47,3.39,3.39,0,0,1,.54-2.62A5.93,5.93,0,0,1,98,7.54a5.14,5.14,0,0,0-.7,4.32,4.67,4.67,0,0,1,.13-4.58,3.56,3.56,0,0,1-.5-.32,4.66,4.66,0,0,0,.73,6.7c1.34-.14,2-.2,3.36-.29-1.57.57-2.34.86-3.86,1.48a6.78,6.78,0,0,1-2.79-4.27l-1.57,0A12.61,12.61,0,0,0,94.05,13c-1.66-1.19-2.65-3.36-3.36-5.2a2.8,2.8,0,0,0-1.2,2.47c-.07,2.08,1.81,3.41,3.7,3.67a5,5,0,0,1-4.82-2.63,3.54,3.54,0,0,1-.29-.71l-1.08,0a11.31,11.31,0,0,1-.41,3.64,16,16,0,0,1-5.39-.46c-.1-1.08-.16-1.61-.27-2.69l-1,.12A3.23,3.23,0,0,1,79.4,13a7,7,0,0,1-4.68,2.76c-.15-1.44-.22-2.16-.38-3.6a120.73,120.73,0,0,0-12.15,2.94c.6-.56.9-.84,1.51-1.38,3.48-1,7-1.86,10.54-2.56-.16-1.48-.24-2.22-.41-3.69.62,2.12,1.23,4.25,1.8,6.38,1.65-.36,3.15-1.49,3.1-3.33A3.88,3.88,0,0,0,75.82,7.1a4.68,4.68,0,0,1,4,3.15l1-.13c-.11-1-.17-1.56-.29-2.6,1.66-.27,3.34-.49,5-.68A26.06,26.06,0,0,0,81.62,8c.3,1.68.6,3.36.87,5a7,7,0,0,0,1.66.16,12.73,12.73,0,0,0,1.42-4,11.75,11.75,0,0,1-.79,4c.47,0,.79-.07.79-.07,1.07-1.77,1.06-4.23,1.13-6.25.15,1,.23,1.94.28,2.74l1-.05a4.41,4.41,0,0,1,4-3.74,12.34,12.34,0,0,0,.47,3.6h2a6.26,6.26,0,0,1,2.29-3.66,13.71,13.71,0,0,0,4.76,1.84,7.85,7.85,0,0,0-.74,2.07c.91.06,1.36.1,2.27.18.49-1.38.81-2.71.81-2.71a22.38,22.38,0,0,1,4.57,1.69,7.64,7.64,0,0,0-3.1-.3,8.38,8.38,0,0,1-2.36,3.71,7,7,0,0,0,2.79,2.67,7.33,7.33,0,0,1,2.71-1.13A8.46,8.46,0,0,0,109,9.4a8.11,8.11,0,0,1,.37,1.19,124.29,124.29,0,0,1,12.81,2.77,2.75,2.75,0,0,0,1.8,3.55,2.14,2.14,0,0,0,2.47-3.29,3.76,3.76,0,0,0-3.62-1.35c2.2-1.21,5.37.31,5.44,2.89S126,18.77,123.77,18.23Z"/></svg>